<svg width="3307" height="369" viewBox="0 0 3307 369" fill="none" xmlns="http://www.w3.org/2000/svg">
<path d="M35.4314 100.987L39.2457 95.6471C35.4314 93.74 32.38 90.6886 30.8543 86.8743C29.3286 82.6786 29.71 78.4829 30.8543 74.6686C32.38 71.2357 34.6686 68.1843 37.3386 66.2771C40.39 63.9886 43.4414 62.4629 47.2557 61.7C54.1214 60.1743 61.3686 60.9371 68.2343 62.4629C85.3986 65.8957 102.563 70.8543 119.346 75.05C136.129 78.8643 152.911 83.8229 170.076 86.1114C171.601 86.4929 173.509 86.8743 175.416 86.8743V133.79L150.241 158.964L175.416 184.139V248.6C165.499 253.559 154.819 256.991 143.757 258.136C125.449 260.424 106.377 256.991 90.3571 247.837C83.8729 244.404 77.77 239.827 72.43 234.487L139.561 206.261V90.3071L55.6471 126.161C64.0386 107.853 77.3886 92.2143 94.1714 81.1528L90.3571 75.4314C68.6157 79.2457 48.4 89.5443 32.7614 104.801C17.1229 120.44 6.44286 140.656 2.24714 162.397C-4.23714 197.107 7.20571 234.487 31.2357 260.806C55.2657 287.124 91.12 302 126.593 300.856C146.046 300.093 165.117 294.753 181.9 284.836C198.683 274.919 212.414 260.424 221.569 243.26C229.579 227.621 233.774 210.076 233.011 192.53H225.764C218.899 209.694 207.837 224.951 193.724 236.776C191.054 238.683 188.766 240.59 186.096 242.497V184.52L211.27 158.964L186.096 133.409V87.6371C189.147 87.6371 192.58 87.2557 195.631 86.8743C204.404 86.1114 212.796 83.06 219.661 78.4829C228.053 72.7614 234.156 64.7514 236.826 55.2157C239.114 45.68 237.97 35.3814 233.393 26.99C229.197 18.98 222.331 12.4957 214.321 8.29999C206.693 4.10429 197.539 1.8157 188.766 0.671431C184.189 0.290007 179.23 0.290007 174.653 0.671431V7.91857C178.467 8.29999 182.663 9.06286 186.859 9.82571C191.054 10.97 194.869 12.1143 198.301 14.7843C199.827 15.9286 201.353 17.8357 202.497 19.7429C203.26 21.2686 203.641 23.5571 203.641 25.4643C203.26 27.7529 202.497 29.2786 201.353 31.1857C200.209 32.7114 198.683 33.8557 197.157 35C193.724 36.5257 189.529 36.9071 185.714 36.9071C174.271 36.5257 163.21 33.0928 152.149 30.4229C137.654 27.3714 123.923 22.0314 109.81 17.4543C100.274 14.4029 90.7386 11.7329 80.8214 10.2071C70.9043 9.06286 60.9871 9.44429 51.4514 11.7329C42.6786 14.0214 34.2871 18.2171 27.4214 23.9386C20.5557 29.66 15.2157 37.2886 12.1643 45.68C8.35 55.9786 8.73143 67.8029 12.9271 78.1014C17.1229 88.4 25.5143 96.7914 35.4314 100.987ZM50.6886 139.13L90.3571 122.347V215.797L65.1829 226.477C59.08 218.467 54.1214 209.313 50.6886 199.777C44.2043 180.324 44.5857 158.583 50.6886 139.13ZM329.936 256.61V162.397L350.915 142.563L373.8 161.634V252.796C373.8 268.434 373.419 284.073 368.46 298.949C365.409 308.103 360.832 316.494 353.966 323.36C347.863 329.081 339.853 333.277 331.843 335.184V344.339C347.1 346.627 363.12 344.339 377.233 337.854C390.965 331.751 402.407 321.834 410.417 309.247C415.757 300.474 419.572 290.557 421.097 280.259C423.005 269.96 423.005 259.661 423.005 249.363V149.81L439.406 136.46L432.922 128.069L417.665 140.274L377.233 106.709L329.936 151.336V9.82571H322.689L260.516 53.69V59.03C263.567 60.1743 266.237 61.3186 269.289 62.8443C271.959 63.9886 274.247 65.8957 276.155 68.1843C276.917 69.71 277.68 71.6171 278.062 73.5243C278.825 75.4314 278.825 77.3386 278.825 79.2457V252.796L253.269 269.197L259.753 277.97L274.247 268.816L313.535 302.381L360.832 269.197L353.966 260.806L342.142 268.816L329.936 256.61ZM445.625 277.589L462.408 263.857L519.241 305.814L597.815 242.116L592.475 232.961L550.136 265.764L504.365 234.487V218.086L586.754 166.974V165.067L548.229 106.709L457.068 154.006V254.703L439.141 269.197L445.625 277.589ZM504.365 208.931V139.893L511.994 135.697L544.796 183.376L504.365 208.931ZM770.48 26.6086C741.491 36.5257 715.554 55.2157 696.864 80.0086C678.556 104.42 667.494 134.934 666.731 165.449C665.206 202.829 678.937 240.59 704.111 267.671C729.667 295.134 767.047 311.154 804.427 308.484C823.117 307.34 841.426 301.619 857.064 291.32C872.703 281.021 885.671 266.909 894.063 249.744C899.784 237.539 903.217 224.189 903.98 210.457H896.733C889.486 225.333 878.424 238.301 864.693 247.837C852.106 256.991 837.23 262.713 821.591 265.001C821.591 196.726 821.591 128.45 821.591 60.1743C823.499 60.9371 825.406 62.0814 827.313 63.2257C840.663 70.4728 854.394 76.9571 868.126 82.6786L913.516 35.3814L910.464 31.5671L898.259 41.4843C889.867 38.8143 881.094 35.3814 873.084 31.5671C859.353 25.4643 846.003 17.8357 833.797 8.68142L733.1 70.4728C743.017 54.0714 757.511 40.7214 774.294 31.9486L770.48 26.6086ZM723.564 207.024C720.894 200.54 718.606 193.293 717.08 186.427C713.266 169.263 712.503 151.717 714.029 134.553C715.173 118.914 718.224 103.276 723.946 88.7814L744.543 76.1943C744.543 117.007 744.543 157.439 744.543 198.251L723.564 207.024ZM727.76 216.56L793.747 188.716V46.0614L796.799 44.5357C801.376 47.5871 805.953 50.6386 810.53 53.69C810.53 124.254 810.53 195.2 810.53 265.764C798.324 266.146 786.119 264.239 774.676 259.28C760.563 253.94 748.357 244.786 738.821 232.961C734.626 228.003 730.811 222.281 727.76 216.56ZM993.523 243.641V134.171L1037.39 163.16V273.011L993.523 243.641ZM931.35 276.444L947.37 263.476C964.916 276.444 982.843 289.413 1000.77 302.381L1085.07 250.889V146.759L1030.14 104.801L944.319 154.006C944.319 186.809 944.319 219.611 944.319 252.414L924.866 268.053L931.35 276.444ZM1291.02 273.774L1271.19 256.229V154.387L1291.4 142.181L1317.72 166.211V260.043L1301.7 274.919L1339.46 307.721L1395.92 271.104V256.991L1379.51 269.197L1361.59 251.27V155.531L1380.66 139.893L1373.79 131.883L1361.21 141.8L1321.54 107.853L1269.28 140.274L1231.14 107.853L1181.17 139.13L1153.33 107.853L1100.31 144.089L1105.65 151.717L1120.14 142.563L1135.02 158.964V260.043L1120.14 273.011L1164.01 307.721L1200.62 274.919L1184.22 260.043V152.099L1201.01 142.181L1227.32 166.211V260.043L1211.3 274.919L1249.07 307.721L1291.02 273.774ZM1467.4 154.387L1484.18 141.8L1509.36 162.397V275.681C1496.77 269.96 1484.18 264.239 1471.21 259.28C1470.07 258.899 1468.93 258.136 1467.4 257.754V154.387ZM1423.15 252.414L1403.7 268.816C1410.19 269.96 1416.67 270.723 1423.15 272.249V368.369H1430.4L1484.95 335.566V330.226C1481.89 329.844 1478.84 328.7 1476.17 326.793C1473.88 324.886 1471.98 322.979 1470.83 320.309C1469.31 318.02 1468.54 314.969 1467.78 312.299C1467.4 309.247 1467.4 306.577 1467.4 303.526V285.98C1476.55 289.794 1484.95 294.371 1493.34 298.949C1502.49 291.32 1512.41 283.691 1522.33 276.444C1533.39 268.816 1544.83 261.569 1556.65 255.084V148.666L1570.77 137.223L1564.28 128.831L1552.46 138.367L1515.46 105.946L1467.4 141.8V134.934C1464.73 129.594 1461.68 124.636 1457.86 120.44C1453.29 115.1 1447.95 110.141 1441.84 106.327L1395.69 137.223L1399.51 143.326C1402.18 141.419 1405.23 140.656 1408.28 140.656C1411.71 140.656 1414.76 141.8 1417.05 143.707C1419.34 145.233 1420.87 147.14 1422.01 149.429C1423.15 152.099 1423.54 154.769 1423.15 157.057V252.414ZM1758.06 260.043L1741.28 271.104L1722.97 252.796V156.676L1743.18 140.656L1736.32 132.264L1721.06 144.851L1664.61 108.616L1622.65 130.357C1618.07 132.646 1613.88 135.316 1610.06 138.367C1606.25 141.8 1603.58 145.233 1601.29 149.429C1599.38 154.006 1598.62 158.583 1599 163.16C1599 168.5 1600.91 173.459 1603.58 177.654C1608.92 185.664 1617.31 191.386 1625.7 195.581C1627.61 196.344 1629.52 197.107 1631.42 197.87C1622.65 202.829 1614.26 208.169 1606.63 215.034C1601.29 219.611 1596.33 224.951 1592.52 231.054C1588.7 237.539 1586.42 244.404 1586.03 251.651C1585.27 262.713 1589.47 273.774 1596.71 282.166C1606.63 294.371 1621.51 302 1637.15 303.907L1677.58 274.919L1706.57 303.907L1759.58 267.671L1758.06 260.043ZM1675.67 200.921C1668.8 199.396 1661.94 197.489 1655.07 195.2C1647.83 192.911 1640.58 190.623 1633.71 187.19C1626.85 184.139 1620.36 179.943 1615.4 173.84C1611.97 170.026 1610.06 165.067 1609.68 159.727C1609.68 155.913 1610.83 152.099 1612.73 148.666C1614.64 145.614 1616.93 142.563 1619.98 140.274C1622.65 138.367 1625.32 137.223 1627.99 135.697L1675.67 165.067C1675.67 176.891 1675.67 189.097 1675.67 200.921ZM1675.67 211.983C1675.67 231.436 1675.67 250.507 1675.67 269.96C1671.47 271.486 1667.28 271.486 1663.08 270.723C1657.36 269.96 1652.4 266.909 1648.21 263.476C1644.39 259.661 1640.96 255.466 1638.29 250.507C1632.95 240.209 1630.28 228.003 1632.19 216.56C1633.33 210.839 1635.24 205.499 1638.29 200.54C1643.25 202.066 1648.21 203.591 1653.17 205.117C1660.41 207.406 1668.04 209.694 1675.67 211.983ZM1916.82 107.471H1906.14C1906.14 107.853 1906.14 107.853 1906.14 107.853L1905.76 107.471C1905.38 112.43 1903.09 116.626 1899.28 119.677C1895.84 121.966 1891.65 123.491 1887.07 123.491C1882.87 123.491 1878.68 122.347 1874.86 120.821C1868.38 117.77 1863.04 112.811 1858.84 106.709L1780.27 152.48V205.88L1808.88 228.766C1805.83 231.817 1802.77 234.869 1799.72 237.92C1789.42 248.219 1779.13 259.28 1774.93 273.011C1771.88 282.547 1771.88 292.846 1776.07 302C1779.89 311.154 1787.52 318.401 1796.67 322.216L1800.49 311.917C1798.2 310.773 1796.29 308.866 1795.53 306.577C1794.76 303.907 1794.76 300.856 1795.53 298.186C1796.67 295.516 1798.58 293.227 1800.87 291.701C1803.92 289.413 1808.11 288.269 1811.93 288.269C1816.12 287.887 1819.94 289.031 1823.75 290.557C1831 293.227 1837.1 298.949 1840.92 305.814L1916.44 260.043V202.447L1883.64 178.417C1887.83 174.603 1891.65 170.789 1895.08 166.593C1899.66 160.871 1903.09 154.769 1906.14 148.284C1911.86 135.697 1915.3 121.584 1916.82 107.471ZM1845.88 210.457L1867.24 227.621V277.207C1862.28 266.527 1853.89 257.754 1843.59 252.796C1835.96 248.981 1827.57 247.456 1819.18 247.837C1810.78 248.6 1802.77 251.651 1796.29 256.61C1799.72 252.796 1803.54 248.981 1807.35 245.167C1815.36 237.539 1823.75 229.91 1832.53 222.281L1845.88 210.457ZM1845.11 197.489L1829.47 181.087V131.501C1833.67 142.181 1842.44 151.336 1853.12 155.913C1860.37 159.346 1868.76 160.49 1876.77 159.346C1881.35 158.583 1885.93 157.439 1890.12 155.531C1888.98 157.057 1887.83 158.583 1886.69 160.109C1882.49 165.067 1877.92 169.263 1873.34 173.077L1845.11 197.489ZM2077.74 107.471H2067.06C2067.06 107.853 2067.06 107.853 2067.06 107.853L2066.68 107.471C2066.29 112.43 2064.01 116.626 2060.19 119.677C2056.76 121.966 2052.56 123.491 2047.99 123.491C2043.79 123.491 2039.59 122.347 2035.78 120.821C2029.3 117.77 2023.96 112.811 2019.76 106.709L1941.19 152.48V205.88L1969.79 228.766C1966.74 231.817 1963.69 234.869 1960.64 237.92C1950.34 248.219 1940.04 259.28 1935.85 273.011C1932.79 282.547 1932.79 292.846 1936.99 302C1940.8 311.154 1948.43 318.401 1957.59 322.216L1961.4 311.917C1959.11 310.773 1957.21 308.866 1956.44 306.577C1955.68 303.907 1955.68 300.856 1956.44 298.186C1957.59 295.516 1959.49 293.227 1961.78 291.701C1964.83 289.413 1969.03 288.269 1972.84 288.269C1977.04 287.887 1980.85 289.031 1984.67 290.557C1991.92 293.227 1998.02 298.949 2001.83 305.814L2077.36 260.043V202.447L2044.55 178.417C2048.75 174.603 2052.56 170.789 2056 166.593C2060.57 160.871 2064.01 154.769 2067.06 148.284C2072.78 135.697 2076.21 121.584 2077.74 107.471ZM2006.79 210.457L2028.15 227.621V277.207C2023.19 266.527 2014.8 257.754 2004.5 252.796C1996.87 248.981 1988.48 247.456 1980.09 247.837C1971.7 248.6 1963.69 251.651 1957.21 256.61C1960.64 252.796 1964.45 248.981 1968.27 245.167C1976.28 237.539 1984.67 229.91 1993.44 222.281L2006.79 210.457ZM2006.03 197.489L1990.39 181.087V131.501C1994.59 142.181 2003.36 151.336 2014.04 155.913C2021.29 159.346 2029.68 160.49 2037.69 159.346C2042.26 158.583 2046.84 157.439 2051.04 155.531C2049.89 157.057 2048.75 158.583 2047.6 160.109C2043.41 165.067 2038.83 169.263 2034.25 173.077L2006.03 197.489ZM2163.51 243.641V134.171L2207.37 163.16V273.011L2163.51 243.641ZM2101.34 276.444L2117.36 263.476C2134.9 276.444 2152.83 289.413 2170.76 302.381L2255.05 250.889V146.759L2200.13 104.801L2114.31 154.006C2114.31 186.809 2114.31 219.611 2114.31 252.414L2094.85 268.053L2101.34 276.444ZM2358.64 100.987L2362.46 95.6471C2358.64 93.74 2355.59 90.6886 2354.07 86.8743C2352.54 82.6786 2352.92 78.4829 2354.07 74.6686C2355.59 71.2357 2357.88 68.1843 2360.55 66.2771C2363.6 63.9886 2366.65 62.4629 2370.47 61.7C2377.33 60.1743 2384.58 60.9371 2391.45 62.4629C2408.61 65.8957 2425.78 70.8543 2442.56 75.05C2459.34 78.8643 2476.12 83.8229 2493.29 86.1114C2494.81 86.4929 2496.72 86.8743 2498.63 86.8743V133.79L2473.45 158.964L2498.63 184.139V248.6C2488.71 253.559 2478.03 256.991 2466.97 258.136C2448.66 260.424 2429.59 256.991 2413.57 247.837C2407.09 244.404 2400.98 239.827 2395.64 234.487L2462.77 206.261V90.3071L2378.86 126.161C2387.25 107.853 2400.6 92.2143 2417.38 81.1528L2413.57 75.4314C2391.83 79.2457 2371.61 89.5443 2355.97 104.801C2340.34 120.44 2329.66 140.656 2325.46 162.397C2318.98 197.107 2330.42 234.487 2354.45 260.806C2378.48 287.124 2414.33 302 2449.81 300.856C2469.26 300.093 2488.33 294.753 2505.11 284.836C2521.9 274.919 2535.63 260.424 2544.78 243.26C2552.79 227.621 2556.99 210.076 2556.22 192.53H2548.98C2542.11 209.694 2531.05 224.951 2516.94 236.776C2514.27 238.683 2511.98 240.59 2509.31 242.497V184.52L2534.48 158.964L2509.31 133.409V87.6371C2512.36 87.6371 2515.79 87.2557 2518.84 86.8743C2527.62 86.1114 2536.01 83.06 2542.87 78.4829C2551.27 72.7614 2557.37 64.7514 2560.04 55.2157C2562.33 45.68 2561.18 35.3814 2556.61 26.99C2552.41 18.98 2545.54 12.4957 2537.53 8.29999C2529.91 4.10429 2520.75 1.8157 2511.98 0.671431C2507.4 0.290007 2502.44 0.290007 2497.87 0.671431V7.91857C2501.68 8.29999 2505.88 9.06286 2510.07 9.82571C2514.27 10.97 2518.08 12.1143 2521.51 14.7843C2523.04 15.9286 2524.57 17.8357 2525.71 19.7429C2526.47 21.2686 2526.85 23.5571 2526.85 25.4643C2526.47 27.7529 2525.71 29.2786 2524.57 31.1857C2523.42 32.7114 2521.9 33.8557 2520.37 35C2516.94 36.5257 2512.74 36.9071 2508.93 36.9071C2497.48 36.5257 2486.42 33.0928 2475.36 30.4229C2460.87 27.3714 2447.14 22.0314 2433.02 17.4543C2423.49 14.4029 2413.95 11.7329 2404.03 10.2071C2394.12 9.06286 2384.2 9.44429 2374.66 11.7329C2365.89 14.0214 2357.5 18.2171 2350.63 23.9386C2343.77 29.66 2338.43 37.2886 2335.38 45.68C2331.56 55.9786 2331.94 67.8029 2336.14 78.1014C2340.34 88.4 2348.73 96.7914 2358.64 100.987ZM2373.9 139.13L2413.57 122.347V215.797L2388.4 226.477C2382.29 218.467 2377.33 209.313 2373.9 199.777C2367.42 180.324 2367.8 158.583 2373.9 139.13ZM2685.95 258.517L2669.55 269.197L2656.58 256.61V141.419L2627.59 106.709L2576.48 141.419L2581.82 148.666L2596.32 139.511L2609.28 155.913V256.61L2585.25 273.011L2590.98 280.259L2603.56 271.104L2640.18 303.907L2695.11 265.764L2685.95 258.517ZM2597.08 55.2157L2629.5 92.2143L2666.12 60.1743L2633.31 23.1757L2597.08 55.2157ZM2885.65 273.774L2865.81 256.229V154.387L2886.03 142.181L2912.35 166.211V260.043L2896.33 274.919L2934.09 307.721L2990.54 271.104V256.991L2974.14 269.197L2956.21 251.27V155.531L2975.28 139.893L2968.42 131.883L2955.83 141.8L2916.16 107.853L2863.91 140.274L2825.76 107.853L2775.8 139.13L2747.95 107.853L2694.93 144.089L2700.27 151.717L2714.77 142.563L2729.64 158.964V260.043L2714.77 273.011L2758.63 307.721L2795.25 274.919L2778.85 260.043V152.099L2795.63 142.181L2821.95 166.211V260.043L2805.93 274.919L2843.69 307.721L2885.65 273.774ZM2996.8 277.589L3013.58 263.857L3070.42 305.814L3148.99 242.116L3143.65 232.961L3101.31 265.764L3055.54 234.487V218.086L3137.93 166.974V165.067L3099.41 106.709L3008.24 154.006V254.703L2990.32 269.197L2996.8 277.589ZM3055.54 208.931V139.893L3063.17 135.697L3095.97 183.376L3055.54 208.931ZM3306.21 107.471H3295.53C3295.53 107.853 3295.53 107.853 3295.53 107.853L3295.14 107.471C3294.76 112.43 3292.47 116.626 3288.66 119.677C3285.23 121.966 3281.03 123.491 3276.45 123.491C3272.26 123.491 3268.06 122.347 3264.25 120.821C3257.76 117.77 3252.42 112.811 3248.23 106.709L3169.65 152.48V205.88L3198.26 228.766C3195.21 231.817 3192.16 234.869 3189.11 237.92C3178.81 248.219 3168.51 259.28 3164.31 273.011C3161.26 282.547 3161.26 292.846 3165.46 302C3169.27 311.154 3176.9 318.401 3186.06 322.216L3189.87 311.917C3187.58 310.773 3185.67 308.866 3184.91 306.577C3184.15 303.907 3184.15 300.856 3184.91 298.186C3186.06 295.516 3187.96 293.227 3190.25 291.701C3193.3 289.413 3197.5 288.269 3201.31 288.269C3205.51 287.887 3209.32 289.031 3213.14 290.557C3220.38 293.227 3226.49 298.949 3230.3 305.814L3305.82 260.043V202.447L3273.02 178.417C3277.22 174.603 3281.03 170.789 3284.46 166.593C3289.04 160.871 3292.47 154.769 3295.53 148.284C3301.25 135.697 3304.68 121.584 3306.21 107.471ZM3235.26 210.457L3256.62 227.621V277.207C3251.66 266.527 3243.27 257.754 3232.97 252.796C3225.34 248.981 3216.95 247.456 3208.56 247.837C3200.17 248.6 3192.16 251.651 3185.67 256.61C3189.11 252.796 3192.92 248.981 3196.74 245.167C3204.75 237.539 3213.14 229.91 3221.91 222.281L3235.26 210.457ZM3234.5 197.489L3218.86 181.087V131.501C3223.05 142.181 3231.83 151.336 3242.51 155.913C3249.75 159.346 3258.15 160.49 3266.16 159.346C3270.73 158.583 3275.31 157.439 3279.51 155.531C3278.36 157.057 3277.22 158.583 3276.07 160.109C3271.88 165.067 3267.3 169.263 3262.72 173.077L3234.5 197.489Z" fill="black"/>
</svg>
