<svg width="220" height="26" viewBox="0 0 220 26" fill="none" xmlns="http://www.w3.org/2000/svg">
<path d="M2.68434 7.65426L2.93758 7.29972C2.68434 7.1731 2.48175 6.97051 2.38046 6.71727C2.27916 6.4387 2.30448 6.16014 2.38046 5.9069C2.48175 5.67899 2.6337 5.47639 2.81096 5.34977C3.01355 5.19783 3.21615 5.09653 3.46939 5.04588C3.92522 4.94459 4.40637 4.99524 4.86221 5.09653C6.00179 5.32445 7.14137 5.65366 8.25562 5.93223C9.36988 6.18546 10.4841 6.51468 11.6237 6.66662C11.725 6.69195 11.8516 6.71727 11.9782 6.71727V9.83212L10.3069 11.5035L11.9782 13.1749V17.4546C11.3198 17.7839 10.6108 18.0118 9.87636 18.0877C8.6608 18.2397 7.39461 18.0118 6.331 17.404C5.90049 17.1761 5.49531 16.8722 5.14077 16.5177L9.59779 14.6437V6.94519L4.02651 9.32564C4.58364 8.11009 5.46998 7.07181 6.58424 6.33741L6.331 5.95755C4.88753 6.21079 3.54536 6.89454 2.50708 7.9075C1.46879 8.94578 0.75972 10.288 0.481156 11.7314C0.050648 14.0359 0.810368 16.5177 2.40578 18.265C4.00119 20.0124 6.38165 21 8.73678 20.924C10.0283 20.8734 11.2945 20.5188 12.4088 19.8604C13.523 19.202 14.4347 18.2397 15.0425 17.1001C15.5743 16.0618 15.8528 14.8969 15.8022 13.732H15.321C14.8652 14.8716 14.1308 15.8846 13.1938 16.6696C13.0165 16.7962 12.8646 16.9228 12.6873 17.0495V13.2002L14.3587 11.5035L12.6873 9.8068V6.76792C12.8899 6.76792 13.1178 6.74259 13.3204 6.71727C13.9029 6.66662 14.46 6.46403 14.9158 6.16014C15.473 5.78028 15.8781 5.24848 16.0554 4.61538C16.2074 3.98228 16.1314 3.29853 15.8275 2.7414C15.5489 2.2096 15.0931 1.77909 14.5613 1.50053C14.0548 1.22196 13.447 1.07002 12.8646 0.994047C12.5607 0.968724 12.2315 0.968724 11.9276 0.994047V1.4752C12.1808 1.50053 12.4594 1.55118 12.738 1.60182C13.0165 1.6778 13.2698 1.75377 13.4977 1.93104C13.599 2.00701 13.7003 2.13363 13.7763 2.26025C13.8269 2.36154 13.8522 2.51349 13.8522 2.64011C13.8269 2.79205 13.7763 2.89335 13.7003 3.01997C13.6243 3.12126 13.523 3.19723 13.4217 3.27321C13.1938 3.3745 12.9152 3.39983 12.662 3.39983C11.9023 3.3745 11.1679 3.14659 10.4335 2.96932C9.47117 2.76673 8.55951 2.41219 7.62252 2.1083C6.98942 1.90571 6.35632 1.72844 5.6979 1.62715C5.03947 1.55118 4.38105 1.5765 3.74795 1.72844C3.1655 1.88039 2.60837 2.15895 2.15254 2.53881C1.69671 2.91867 1.34217 3.42515 1.13958 3.98228C0.88634 4.66603 0.911664 5.45107 1.19023 6.13482C1.46879 6.81857 2.02592 7.37569 2.68434 7.65426ZM3.6973 10.1867L6.331 9.0724V15.2768L4.65961 15.9858C4.25443 15.454 3.92522 14.8463 3.6973 14.2132C3.26679 12.9216 3.29212 11.4782 3.6973 10.1867ZM22.2372 17.9864V11.7314L23.6301 10.4146L25.1495 11.6808V17.7332C25.1495 18.7715 25.1242 19.8098 24.795 20.7974C24.5924 21.4052 24.2885 21.9623 23.8326 22.4181C23.4275 22.798 22.8957 23.0766 22.3639 23.2032V23.811C23.3768 23.9629 24.4404 23.811 25.3774 23.3805C26.2891 22.9753 27.0488 22.3168 27.5806 21.4812C27.9351 20.8987 28.1884 20.2403 28.2897 19.5565C28.4163 18.8728 28.4163 18.189 28.4163 17.5053V10.8957L29.5052 10.0094L29.0747 9.45226L28.0618 10.2626L25.3774 8.03412L22.2372 10.997V1.60182H21.7561L17.6283 4.51408V4.86862C17.8309 4.94459 18.0081 5.02056 18.2107 5.12186C18.388 5.19783 18.5399 5.32445 18.6666 5.47639C18.7172 5.57769 18.7678 5.70431 18.7932 5.83093C18.8438 5.95755 18.8438 6.08417 18.8438 6.21079V17.7332L17.1471 18.8221L17.5776 19.4046L18.5399 18.7968L21.1483 21.0253L24.2885 18.8221L23.8326 18.265L23.0476 18.7968L22.2372 17.9864ZM29.9181 19.3793L31.0324 18.4676L34.8056 21.2532L40.0224 17.0241L39.6679 16.4164L36.8569 18.5942L33.818 16.5177V15.4287L39.288 12.0353V11.9087L36.7303 8.03412L30.6778 11.1743V17.8598L29.4876 18.8221L29.9181 19.3793ZM33.818 14.8209V10.2373L34.3245 9.95874L36.5024 13.1242L33.818 14.8209ZM51.486 2.71608C49.5614 3.3745 47.8394 4.61538 46.5985 6.26144C45.383 7.88217 44.6486 9.90809 44.5979 11.934C44.4966 14.4158 45.4083 16.9228 47.0797 18.7208C48.7764 20.5442 51.2581 21.6078 53.7399 21.4305C54.9808 21.3545 56.1963 20.9747 57.2346 20.2909C58.2729 19.6072 59.1339 18.6702 59.691 17.5306C60.0709 16.7202 60.2988 15.8339 60.3494 14.9222H59.8683C59.3871 15.9099 58.6527 16.7709 57.7411 17.404C56.9054 18.0118 55.9177 18.3916 54.8795 18.5436C54.8795 14.0106 54.8795 9.47758 54.8795 4.94459C55.0061 4.99524 55.1327 5.07121 55.2593 5.14718C56.1457 5.62834 57.0573 6.05885 57.969 6.4387L60.9825 3.29853L60.78 3.04529L59.9696 3.70371C59.4125 3.52645 58.83 3.29853 58.2982 3.04529C57.3865 2.64011 56.5002 2.13363 55.6898 1.52585L49.0043 5.62834C49.6627 4.53941 50.625 3.65307 51.7393 3.07062L51.486 2.71608ZM48.3712 14.6943C48.1939 14.2638 48.042 13.7827 47.9407 13.3268C47.6875 12.1873 47.6368 11.0223 47.7381 9.88277C47.8141 8.84448 48.0167 7.8062 48.3965 6.84389L49.764 6.0082C49.764 8.71786 49.764 11.4022 49.764 14.1119L48.3712 14.6943ZM48.6498 15.3274L53.0308 13.4788V4.0076L53.2334 3.90631C53.5373 4.1089 53.8412 4.31149 54.1451 4.51408C54.1451 9.19902 54.1451 13.9093 54.1451 18.5942C53.3347 18.6195 52.5243 18.4929 51.7646 18.1637C50.8276 17.8092 50.0173 17.2014 49.3842 16.4164C49.1056 16.0871 48.8524 15.7073 48.6498 15.3274ZM66.2944 17.1254V9.85744L69.2067 11.7821V19.0754L66.2944 17.1254ZM62.1666 19.3033L63.2302 18.4423C64.3951 19.3033 65.5854 20.1643 66.7756 21.0253L72.3722 17.6066V10.6931L68.7256 7.9075L63.0277 11.1743C63.0277 13.3522 63.0277 15.53 63.0277 17.7079L61.7361 18.7462L62.1666 19.3033ZM86.0462 19.126L84.7293 17.9611V11.1996L86.0715 10.3892L87.8189 11.9847V18.2144L86.7552 19.202L89.2623 21.3799L93.0103 18.9488V18.0118L91.9213 18.8221L90.7311 17.6319V11.2756L91.9973 10.2373L91.5415 9.7055L90.7058 10.3639L88.0721 8.11009L84.6027 10.2626L82.0703 8.11009L78.7529 10.1867L76.9042 8.11009L73.3842 10.5159L73.7387 11.0223L74.701 10.4146L75.6887 11.5035V18.2144L74.701 19.0754L77.6133 21.3799L80.0444 19.202L78.9555 18.2144V11.0477L80.0697 10.3892L81.8171 11.9847V18.2144L80.7535 19.202L83.2605 21.3799L86.0462 19.126ZM97.7563 11.1996L98.8706 10.3639L100.542 11.7314V19.2526C99.7063 18.8728 98.8706 18.4929 98.0096 18.1637C97.9336 18.1384 97.8576 18.0877 97.7563 18.0624V11.1996ZM94.8188 17.7079L93.5272 18.7968C93.9577 18.8728 94.3882 18.9234 94.8188 19.0247V25.4064H95.2999L98.9212 23.2285V22.874C98.7187 22.8487 98.5161 22.7727 98.3388 22.6461C98.1868 22.5194 98.0602 22.3928 97.9843 22.2156C97.883 22.0636 97.8323 21.861 97.7817 21.6837C97.7563 21.4812 97.7563 21.3039 97.7563 21.1013V19.9364C98.3641 20.1896 98.9212 20.4935 99.4784 20.7974C100.086 20.2909 100.745 19.7844 101.403 19.3033C102.137 18.7968 102.897 18.3157 103.682 17.8851V10.8198L104.619 10.06L104.189 9.50291L103.404 10.136L100.947 7.98347L97.7563 10.3639V9.90809C97.5791 9.55356 97.3765 9.22434 97.1232 8.94578C96.8194 8.59124 96.4648 8.26203 96.0596 8.00879L92.9954 10.06L93.2487 10.4652C93.4259 10.3386 93.6285 10.288 93.8311 10.288C94.059 10.288 94.2616 10.3639 94.4136 10.4905C94.5655 10.5918 94.6668 10.7185 94.7428 10.8704C94.8188 11.0477 94.8441 11.2249 94.8188 11.3769V17.7079ZM117.054 18.2144L115.94 18.9488L114.724 17.7332V11.3516L116.066 10.288L115.61 9.73082L114.597 10.5665L110.849 8.16074L108.064 9.6042C107.76 9.75615 107.481 9.93342 107.228 10.136C106.975 10.3639 106.798 10.5918 106.646 10.8704C106.519 11.1743 106.468 11.4782 106.494 11.7821C106.494 12.1366 106.62 12.4658 106.798 12.7444C107.152 13.2762 107.709 13.656 108.266 13.9346C108.393 13.9853 108.52 14.0359 108.646 14.0866C108.064 14.4158 107.507 14.7703 107 15.2261C106.646 15.53 106.316 15.8846 106.063 16.2897C105.81 16.7202 105.658 17.1761 105.633 17.6572C105.582 18.3916 105.861 19.126 106.342 19.6832C107 20.4935 107.988 21 109.026 21.1266L111.71 19.202L113.635 21.1266L117.155 18.7208L117.054 18.2144ZM111.584 14.2891C111.128 14.1878 110.672 14.0612 110.216 13.9093C109.735 13.7573 109.254 13.6054 108.798 13.3775C108.342 13.1749 107.912 12.8963 107.583 12.4911C107.355 12.2379 107.228 11.9087 107.203 11.5542C107.203 11.3009 107.279 11.0477 107.405 10.8198C107.532 10.6172 107.684 10.4146 107.887 10.2626C108.064 10.136 108.241 10.06 108.418 9.95874L111.584 11.9087C111.584 12.6937 111.584 13.5041 111.584 14.2891ZM111.584 15.0235C111.584 16.3151 111.584 17.5813 111.584 18.8728C111.305 18.9741 111.027 18.9741 110.748 18.9234C110.368 18.8728 110.039 18.6702 109.761 18.4423C109.507 18.189 109.279 17.9105 109.102 17.5813C108.748 16.8975 108.57 16.0871 108.697 15.3274C108.773 14.9476 108.899 14.593 109.102 14.2638C109.431 14.3651 109.761 14.4664 110.09 14.5677C110.571 14.7197 111.077 14.8716 111.584 15.0235ZM127.595 8.08476H126.885C126.885 8.11009 126.885 8.11009 126.885 8.11009L126.86 8.08476C126.835 8.41398 126.683 8.69254 126.43 8.89513C126.202 9.04708 125.923 9.14837 125.619 9.14837C125.341 9.14837 125.062 9.0724 124.809 8.9711C124.378 8.76851 124.024 8.4393 123.745 8.03412L118.529 11.073V14.6184L120.428 16.1378C120.225 16.3404 120.023 16.543 119.82 16.7456C119.136 17.4293 118.453 18.1637 118.174 19.0754C117.971 19.7085 117.971 20.3922 118.25 21C118.503 21.6078 119.01 22.0889 119.617 22.3422L119.871 21.6584C119.719 21.5825 119.592 21.4558 119.542 21.3039C119.491 21.1266 119.491 20.924 119.542 20.7468C119.617 20.5695 119.744 20.4175 119.896 20.3163C120.099 20.1643 120.377 20.0883 120.63 20.0883C120.909 20.063 121.162 20.139 121.415 20.2403C121.897 20.4175 122.302 20.7974 122.555 21.2532L127.569 18.2144V14.3904L125.391 12.795C125.67 12.5418 125.923 12.2885 126.151 12.01C126.455 11.6301 126.683 11.2249 126.885 10.7944C127.265 9.95874 127.493 9.02175 127.595 8.08476ZM122.884 14.9222L124.302 16.0618V19.3539C123.973 18.6449 123.416 18.0624 122.732 17.7332C122.226 17.48 121.669 17.3787 121.112 17.404C120.554 17.4546 120.023 17.6572 119.592 17.9864C119.82 17.7332 120.073 17.48 120.327 17.2267C120.858 16.7202 121.415 16.2138 121.998 15.7073L122.884 14.9222ZM122.834 14.0612L121.795 12.9723V9.68018C122.074 10.3892 122.656 10.997 123.365 11.3009C123.847 11.5288 124.404 11.6048 124.936 11.5288C125.239 11.4782 125.543 11.4022 125.822 11.2756C125.746 11.3769 125.67 11.4782 125.594 11.5795C125.315 11.9087 125.011 12.1873 124.708 12.4405L122.834 14.0612ZM138.278 8.08476H137.569C137.569 8.11009 137.569 8.11009 137.569 8.11009L137.544 8.08476C137.518 8.41398 137.366 8.69254 137.113 8.89513C136.885 9.04708 136.607 9.14837 136.303 9.14837C136.024 9.14837 135.746 9.0724 135.492 8.9711C135.062 8.76851 134.707 8.4393 134.429 8.03412L129.212 11.073V14.6184L131.111 16.1378C130.909 16.3404 130.706 16.543 130.504 16.7456C129.82 17.4293 129.136 18.1637 128.858 19.0754C128.655 19.7085 128.655 20.3922 128.934 21C129.187 21.6078 129.693 22.0889 130.301 22.3422L130.554 21.6584C130.402 21.5825 130.276 21.4558 130.225 21.3039C130.174 21.1266 130.174 20.924 130.225 20.7468C130.301 20.5695 130.428 20.4175 130.58 20.3163C130.782 20.1643 131.061 20.0883 131.314 20.0883C131.593 20.063 131.846 20.139 132.099 20.2403C132.58 20.4175 132.985 20.7974 133.239 21.2532L138.253 18.2144V14.3904L136.075 12.795C136.353 12.5418 136.607 12.2885 136.835 12.01C137.139 11.6301 137.366 11.2249 137.569 10.7944C137.949 9.95874 138.177 9.02175 138.278 8.08476ZM133.568 14.9222L134.986 16.0618V19.3539C134.657 18.6449 134.1 18.0624 133.416 17.7332C132.909 17.48 132.352 17.3787 131.795 17.404C131.238 17.4546 130.706 17.6572 130.276 17.9864C130.504 17.7332 130.757 17.48 131.01 17.2267C131.542 16.7202 132.099 16.2138 132.681 15.7073L133.568 14.9222ZM133.517 14.0612L132.479 12.9723V9.68018C132.757 10.3892 133.34 10.997 134.049 11.3009C134.53 11.5288 135.087 11.6048 135.619 11.5288C135.923 11.4782 136.227 11.4022 136.505 11.2756C136.429 11.3769 136.353 11.4782 136.277 11.5795C135.999 11.9087 135.695 12.1873 135.391 12.4405L133.517 14.0612ZM143.973 17.1254V9.85744L146.885 11.7821V19.0754L143.973 17.1254ZM139.845 19.3033L140.909 18.4423C142.074 19.3033 143.264 20.1643 144.454 21.0253L150.051 17.6066V10.6931L146.404 7.9075L140.706 11.1743C140.706 13.3522 140.706 15.53 140.706 17.7079L139.414 18.7462L139.845 19.3033ZM156.928 7.65426L157.181 7.29972C156.928 7.1731 156.726 6.97051 156.624 6.71727C156.523 6.4387 156.548 6.16014 156.624 5.9069C156.726 5.67899 156.878 5.47639 157.055 5.34977C157.257 5.19783 157.46 5.09653 157.713 5.04588C158.169 4.94459 158.65 4.99524 159.106 5.09653C160.246 5.32445 161.385 5.65366 162.499 5.93223C163.614 6.18546 164.728 6.51468 165.868 6.66662C165.969 6.69195 166.095 6.71727 166.222 6.71727V9.83212L164.551 11.5035L166.222 13.1749V17.4546C165.564 17.7839 164.855 18.0118 164.12 18.0877C162.905 18.2397 161.638 18.0118 160.575 17.404C160.144 17.1761 159.739 16.8722 159.385 16.5177L163.842 14.6437V6.94519L158.27 9.32564C158.828 8.11009 159.714 7.07181 160.828 6.33741L160.575 5.95755C159.131 6.21079 157.789 6.89454 156.751 7.9075C155.713 8.94578 155.004 10.288 154.725 11.7314C154.295 14.0359 155.054 16.5177 156.65 18.265C158.245 20.0124 160.626 21 162.981 20.924C164.272 20.8734 165.538 20.5188 166.653 19.8604C167.767 19.202 168.679 18.2397 169.286 17.1001C169.818 16.0618 170.097 14.8969 170.046 13.732H169.565C169.109 14.8716 168.375 15.8846 167.438 16.6696C167.26 16.7962 167.108 16.9228 166.931 17.0495V13.2002L168.603 11.5035L166.931 9.8068V6.76792C167.134 6.76792 167.362 6.74259 167.564 6.71727C168.147 6.66662 168.704 6.46403 169.16 6.16014C169.717 5.78028 170.122 5.24848 170.299 4.61538C170.451 3.98228 170.375 3.29853 170.071 2.7414C169.793 2.2096 169.337 1.77909 168.805 1.50053C168.299 1.22196 167.691 1.07002 167.108 0.994047C166.805 0.968724 166.475 0.968724 166.171 0.994047V1.4752C166.425 1.50053 166.703 1.55118 166.982 1.60182C167.26 1.6778 167.514 1.75377 167.742 1.93104C167.843 2.00701 167.944 2.13363 168.02 2.26025C168.071 2.36154 168.096 2.51349 168.096 2.64011C168.071 2.79205 168.02 2.89335 167.944 3.01997C167.868 3.12126 167.767 3.19723 167.666 3.27321C167.438 3.3745 167.159 3.39983 166.906 3.39983C166.146 3.3745 165.412 3.14659 164.677 2.96932C163.715 2.76673 162.803 2.41219 161.866 2.1083C161.233 1.90571 160.6 1.72844 159.942 1.62715C159.283 1.55118 158.625 1.5765 157.992 1.72844C157.409 1.88039 156.852 2.15895 156.396 2.53881C155.941 2.91867 155.586 3.42515 155.383 3.98228C155.13 4.66603 155.156 5.45107 155.434 6.13482C155.713 6.81857 156.27 7.37569 156.928 7.65426ZM157.941 10.1867L160.575 9.0724V15.2768L158.903 15.9858C158.498 15.454 158.169 14.8463 157.941 14.2132C157.511 12.9216 157.536 11.4782 157.941 10.1867ZM178.659 18.1131L177.57 18.8221L176.709 17.9864V10.3386L174.784 8.03412L171.391 10.3386L171.746 10.8198L172.708 10.212L173.569 11.3009V17.9864L171.973 19.0754L172.353 19.5565L173.189 18.9488L175.62 21.1266L179.267 18.5942L178.659 18.1131ZM172.758 4.61538L174.911 7.07181L177.342 4.94459L175.164 2.48816L172.758 4.61538ZM191.917 19.126L190.6 17.9611V11.1996L191.943 10.3892L193.69 11.9847V18.2144L192.626 19.202L195.133 21.3799L198.881 18.9488V18.0118L197.792 18.8221L196.602 17.6319V11.2756L197.868 10.2373L197.413 9.7055L196.577 10.3639L193.943 8.11009L190.474 10.2626L187.941 8.11009L184.624 10.1867L182.775 8.11009L179.255 10.5159L179.61 11.0223L180.572 10.4146L181.56 11.5035V18.2144L180.572 19.0754L183.484 21.3799L185.915 19.202L184.827 18.2144V11.0477L185.941 10.3892L187.688 11.9847V18.2144L186.625 19.202L189.132 21.3799L191.917 19.126ZM199.297 19.3793L200.411 18.4676L204.185 21.2532L209.401 17.0241L209.047 16.4164L206.236 18.5942L203.197 16.5177V15.4287L208.667 12.0353V11.9087L206.109 8.03412L200.057 11.1743V17.8598L198.867 18.8221L199.297 19.3793ZM203.197 14.8209V10.2373L203.703 9.95874L205.881 13.1242L203.197 14.8209ZM219.839 8.08476H219.13C219.13 8.11009 219.13 8.11009 219.13 8.11009L219.105 8.08476C219.079 8.41398 218.927 8.69254 218.674 8.89513C218.446 9.04708 218.168 9.14837 217.864 9.14837C217.585 9.14837 217.307 9.0724 217.054 8.9711C216.623 8.76851 216.268 8.4393 215.99 8.03412L210.773 11.073V14.6184L212.672 16.1378C212.47 16.3404 212.267 16.543 212.065 16.7456C211.381 17.4293 210.697 18.1637 210.419 19.0754C210.216 19.7085 210.216 20.3922 210.495 21C210.748 21.6078 211.254 22.0889 211.862 22.3422L212.115 21.6584C211.963 21.5825 211.837 21.4558 211.786 21.3039C211.735 21.1266 211.735 20.924 211.786 20.7468C211.862 20.5695 211.989 20.4175 212.141 20.3163C212.343 20.1643 212.622 20.0883 212.875 20.0883C213.154 20.063 213.407 20.139 213.66 20.2403C214.141 20.4175 214.546 20.7974 214.8 21.2532L219.814 18.2144V14.3904L217.636 12.795C217.915 12.5418 218.168 12.2885 218.396 12.01C218.7 11.6301 218.927 11.2249 219.13 10.7944C219.51 9.95874 219.738 9.02175 219.839 8.08476ZM215.129 14.9222L216.547 16.0618V19.3539C216.218 18.6449 215.661 18.0624 214.977 17.7332C214.47 17.48 213.913 17.3787 213.356 17.404C212.799 17.4546 212.267 17.6572 211.837 17.9864C212.065 17.7332 212.318 17.48 212.571 17.2267C213.103 16.7202 213.66 16.2138 214.243 15.7073L215.129 14.9222ZM215.078 14.0612L214.04 12.9723V9.68018C214.319 10.3892 214.901 10.997 215.61 11.3009C216.091 11.5288 216.648 11.6048 217.18 11.5288C217.484 11.4782 217.788 11.4022 218.066 11.2756C217.99 11.3769 217.915 11.4782 217.839 11.5795C217.56 11.9087 217.256 12.1873 216.952 12.4405L215.078 14.0612Z" fill="black"/>
</svg>
