<svg width="770" height="773" viewBox="0 0 770 773" fill="none" xmlns="http://www.w3.org/2000/svg">
<path fill-rule="evenodd" clip-rule="evenodd" d="M91.1645 136.753C62.7996 170.176 41.192 208.554 25.33 250.213C8.78053 293.635 0 338.329 0 385.941C0 439.636 11.5561 489.505 31.3998 536.883C51.049 583.743 78.0001 624.001 113.459 659.461C147.894 693.882 188.412 721.249 235.012 741.507C282.299 762.167 333.339 772.852 384.943 772.894C438.637 772.894 488.428 762.129 535.872 741.507C581.629 721.625 622.484 694.388 657.437 659.461C692.391 624.507 718.979 583.367 738.485 536.883C758.485 489.155 769.885 439.636 769.885 385.941C769.885 338.329 761.105 293.635 744.555 250.213C728.693 208.541 707.332 170.993 678.708 136.753C650.602 103.11 617.776 75.2376 580.449 53.6948C522.02 19.9475 461.918 0 392.037 0H381.908C313.025 0 249.979 19.7529 190.448 53.6948C152.991 75.0301 119.516 103.33 91.1645 136.753Z" fill="black"/>
<path fill-rule="evenodd" clip-rule="evenodd" d="M642.224 139.801C594.612 82.0598 532.824 44.5772 456.847 30.4013C381.882 16.2253 310.976 27.3663 244.117 63.8243C209.669 83.0714 180.293 107.39 156.999 135.742C132.681 165.118 114.445 198.541 102.293 236.024C90.1269 274.518 87.092 315.036 91.1515 354.542C101.281 329.212 116.481 305.918 134.704 283.636C161.046 252.236 193.457 228.929 229.928 211.719C266.971 195.246 306.917 186.292 347.447 185.377C388.976 185.377 429.494 193.483 466.976 209.695C506.469 225.907 540.917 250.226 570.294 282.624C581.435 293.765 590.552 306.943 599.67 320.107C612.834 320.107 625.999 321.118 637.153 324.153C666.529 332.259 689.836 347.447 708.058 369.742L709.07 355.553C712.105 316.06 708.058 278.565 696.917 242.094C685.789 205.649 667.554 171.201 642.224 139.801V139.801ZM83.0584 504.472C88.1296 534.873 97.2343 564.25 112.435 590.578C126.611 616.92 145.858 641.238 170.176 662.522L182.329 672.625C223.871 701.003 268.435 721.262 317.059 731.391C348.459 737.474 379.858 735.438 410.26 728.356C442.671 721.262 473.059 708.097 501.424 688.837C475.095 682.754 451.789 668.591 433.566 647.321L426.472 639.215C387.978 643.261 349.483 642.25 310.989 634.144C262.365 623.003 219.825 602.731 180.306 574.392C142.823 546.014 111.423 509.543 88.1296 467.015L82.0467 454.85C81.0351 471.049 81.0351 488.26 83.0584 504.472V504.472Z" fill="white"/>
<path fill-rule="evenodd" clip-rule="evenodd" d="M443.683 249.201C408.223 234 369.729 226.906 330.223 226.906C291.729 227.918 255.258 236.024 221.835 252.236C188.399 267.424 159.035 289.719 134.717 318.084C117.506 339.367 103.317 362.661 94.1994 386.966C101.332 417.546 112.94 446.906 128.647 474.097C151.941 513.59 182.329 547.026 219.812 573.367C256.283 599.683 297.812 616.907 342.389 627.049C369.729 632.12 398.107 634.144 426.459 633.132C415.216 614.947 407.966 594.58 405.188 573.38C401.129 551.085 402.153 528.79 406.2 504.485C411.271 475.121 422.412 447.768 437.613 422.438C453.825 397.108 475.095 373.815 500.412 355.579C516.625 343.426 533.848 334.309 551.059 327.214L541.955 317.085C513.577 287.695 481.165 264.389 443.683 249.201V249.201Z" fill="white"/>
<path fill-rule="evenodd" clip-rule="evenodd" d="M714.154 422.412L705.036 407.212C691.872 452.813 667.554 493.318 636.154 529.789C629.06 560.19 616.907 587.517 600.695 612.847C584.495 638.177 563.212 660.472 538.907 679.693C556.131 680.705 573.354 677.67 590.578 671.613C606.777 665.53 621.978 656.413 637.166 644.26C657.852 624.564 676.518 602.848 692.884 579.437L695.919 575.365C703.013 560.19 710.108 544.99 715.166 530.801C720.041 516.382 723.104 501.412 724.284 486.236C725.295 471.036 725.295 457.859 722.26 444.694C720.224 436.601 717.189 429.507 714.154 422.412V422.412Z" fill="white"/>
<path fill-rule="evenodd" clip-rule="evenodd" d="M47.612 244.13C34.4347 280.601 27.3532 319.095 25.3299 360.624C24.2801 413.437 34.2865 465.885 54.7065 514.601C64.8358 537.908 76.9885 560.203 92.1891 581.473C106.443 601.97 122.734 620.973 140.813 638.19C101.307 594.625 78.0131 543.978 70.9187 487.235C68.8954 468.014 68.8954 449.765 69.8941 430.518C56.7298 394.047 49.6353 357.576 49.6353 320.107C49.6353 284.66 55.7181 250.213 66.8591 214.753C75.9769 190.448 88.1425 167.141 101.307 145.871C78.0002 176.259 60.7763 208.683 47.612 244.13V244.13ZM739.471 265.4C730.468 236.112 718.236 207.915 703 181.33C687.676 155.622 668.937 132.109 647.295 111.436C626.747 89.9401 603.207 71.5195 577.401 56.7427C599.683 71.9303 619.942 90.1658 638.177 110.425C666.542 142.849 687.813 177.284 700.977 215.778C714.154 255.284 720.224 295.801 717.189 338.342C716.177 351.519 714.154 363.672 712.118 376.836C717.189 384.943 722.247 395.085 726.294 405.188C736.423 434.578 738.459 465.991 733.388 497.364C748.576 453.825 756.682 408.223 755.67 360.624C753.66 328.213 748.589 295.801 739.471 265.4Z" fill="white"/>
<path fill-rule="evenodd" clip-rule="evenodd" d="M619.942 361.636C630.071 382.906 636.154 406.2 639.189 429.507C642.224 452.813 643.235 475.108 641.212 497.364L637.166 519.66C667.554 484.226 687.813 444.707 699.965 399.106C692.884 392.037 685.789 384.93 677.683 378.86C661.471 367.719 642.224 361.636 619.942 361.636Z" fill="white"/>
<path fill-rule="evenodd" clip-rule="evenodd" d="M559.165 629.073C571.311 611.844 581.184 593.121 588.542 573.367C548.024 602.731 503.447 622.99 454.824 633.119C461.918 644.26 471.036 653.378 481.165 660.472C491.295 667.567 502.436 672.612 515.6 676.659C531.812 662.509 547 646.296 559.165 629.073ZM355.553 737.461L399.119 739.484C436.601 738.473 472.048 731.378 506.482 720.237C538.907 709.096 570.307 693.895 597.66 674.661C580.436 682.741 562.2 688.824 542.953 689.836C536.883 690.848 529.776 690.848 522.695 690.848C473.059 723.285 417.341 738.486 355.553 737.461V737.461Z" fill="white"/>
<path fill-rule="evenodd" clip-rule="evenodd" d="M596.648 443.696C590.578 417.354 581.447 393.036 568.283 369.742C544.989 376.837 524.731 388.989 505.471 405.188C484.85 422.819 467.677 444.121 454.824 468.014C443.683 492.306 436.588 515.613 434.565 539.931C431.53 563.238 434.565 584.495 440.648 604.754C443.683 611.849 445.706 617.932 449.766 624.001C475.095 620.966 498.389 613.872 521.683 603.743C546.001 594.625 568.283 581.474 589.554 565.261L591.577 564.25C595.623 549.049 598.658 533.849 600.695 518.648C602.718 493.318 601.706 469.026 596.648 443.696V443.696Z" fill="white"/>
</svg>
